<mxfile host="app.diagrams.net" modified="2020-03-15T19:22:56.486Z" agent="Mozilla/5.0 (Windows NT 10.0; Win64; x64) AppleWebKit/537.36 (KHTML, like Gecko) Chrome/80.0.3987.132 Safari/537.36" etag="mZY7Nhd8uv5guKnrFfmQ" version="12.8.5" type="github" pages="3">
  <diagram name="mapa navegacion" id="e7e014a7-5840-1c2e-5031-d8a46d1fe8dd">
    <mxGraphModel dx="1391" dy="804" grid="1" gridSize="10" guides="1" tooltips="1" connect="1" arrows="1" fold="1" page="1" pageScale="1" pageWidth="1169" pageHeight="826" background="#ffffff" math="0" shadow="0">
      <root>
        <mxCell id="0" />
        <mxCell id="1" parent="0" />
        <mxCell id="12lOe5pPhqCpIjHMCl5X-41" value="" style="ellipse;html=1;shape=startState;fillColor=#000000;strokeColor=#ff0000;" parent="1" vertex="1">
          <mxGeometry x="540" y="80" width="30" height="30" as="geometry" />
        </mxCell>
        <mxCell id="12lOe5pPhqCpIjHMCl5X-42" value="" style="edgeStyle=orthogonalEdgeStyle;html=1;verticalAlign=bottom;endArrow=open;endSize=8;strokeColor=#ff0000;entryX=0.5;entryY=0;entryDx=0;entryDy=0;" parent="1" source="12lOe5pPhqCpIjHMCl5X-41" target="12lOe5pPhqCpIjHMCl5X-43" edge="1">
          <mxGeometry relative="1" as="geometry">
            <mxPoint x="555" y="170" as="targetPoint" />
          </mxGeometry>
        </mxCell>
        <mxCell id="12lOe5pPhqCpIjHMCl5X-49" style="edgeStyle=orthogonalEdgeStyle;rounded=0;orthogonalLoop=1;jettySize=auto;html=1;entryX=0.5;entryY=0;entryDx=0;entryDy=0;" parent="1" source="12lOe5pPhqCpIjHMCl5X-43" target="12lOe5pPhqCpIjHMCl5X-47" edge="1">
          <mxGeometry relative="1" as="geometry" />
        </mxCell>
        <mxCell id="12lOe5pPhqCpIjHMCl5X-50" style="edgeStyle=orthogonalEdgeStyle;rounded=0;orthogonalLoop=1;jettySize=auto;html=1;" parent="1" source="12lOe5pPhqCpIjHMCl5X-43" target="12lOe5pPhqCpIjHMCl5X-45" edge="1">
          <mxGeometry relative="1" as="geometry" />
        </mxCell>
        <mxCell id="12lOe5pPhqCpIjHMCl5X-51" style="edgeStyle=orthogonalEdgeStyle;rounded=0;orthogonalLoop=1;jettySize=auto;html=1;" parent="1" source="12lOe5pPhqCpIjHMCl5X-43" target="12lOe5pPhqCpIjHMCl5X-48" edge="1">
          <mxGeometry relative="1" as="geometry" />
        </mxCell>
        <mxCell id="12lOe5pPhqCpIjHMCl5X-43" value="index.html" style="rounded=1;whiteSpace=wrap;html=1;" parent="1" vertex="1">
          <mxGeometry x="457.5" y="140" width="195" height="60" as="geometry" />
        </mxCell>
        <mxCell id="12lOe5pPhqCpIjHMCl5X-62" style="edgeStyle=orthogonalEdgeStyle;rounded=0;orthogonalLoop=1;jettySize=auto;html=1;" parent="1" source="12lOe5pPhqCpIjHMCl5X-45" target="12lOe5pPhqCpIjHMCl5X-52" edge="1">
          <mxGeometry relative="1" as="geometry" />
        </mxCell>
        <mxCell id="12lOe5pPhqCpIjHMCl5X-45" value="installplatform.html" style="rounded=1;whiteSpace=wrap;html=1;fillColor=#ffe6cc;strokeColor=#d79b00;" parent="1" vertex="1">
          <mxGeometry x="146" y="280" width="170" height="60" as="geometry" />
        </mxCell>
        <mxCell id="12lOe5pPhqCpIjHMCl5X-58" style="edgeStyle=orthogonalEdgeStyle;rounded=0;orthogonalLoop=1;jettySize=auto;html=1;" parent="1" source="12lOe5pPhqCpIjHMCl5X-47" target="12lOe5pPhqCpIjHMCl5X-53" edge="1">
          <mxGeometry relative="1" as="geometry" />
        </mxCell>
        <mxCell id="12lOe5pPhqCpIjHMCl5X-59" style="edgeStyle=orthogonalEdgeStyle;rounded=0;orthogonalLoop=1;jettySize=auto;html=1;" parent="1" source="12lOe5pPhqCpIjHMCl5X-47" target="12lOe5pPhqCpIjHMCl5X-55" edge="1">
          <mxGeometry relative="1" as="geometry" />
        </mxCell>
        <mxCell id="12lOe5pPhqCpIjHMCl5X-47" value="loginuniversidad.html" style="rounded=1;whiteSpace=wrap;html=1;fillColor=#dae8fc;strokeColor=#6c8ebf;" parent="1" vertex="1">
          <mxGeometry x="470" y="280" width="170" height="60" as="geometry" />
        </mxCell>
        <mxCell id="12lOe5pPhqCpIjHMCl5X-60" style="edgeStyle=orthogonalEdgeStyle;rounded=0;orthogonalLoop=1;jettySize=auto;html=1;entryX=0.5;entryY=0;entryDx=0;entryDy=0;" parent="1" source="12lOe5pPhqCpIjHMCl5X-48" target="12lOe5pPhqCpIjHMCl5X-56" edge="1">
          <mxGeometry relative="1" as="geometry" />
        </mxCell>
        <mxCell id="12lOe5pPhqCpIjHMCl5X-61" style="edgeStyle=orthogonalEdgeStyle;rounded=0;orthogonalLoop=1;jettySize=auto;html=1;" parent="1" source="12lOe5pPhqCpIjHMCl5X-48" target="12lOe5pPhqCpIjHMCl5X-57" edge="1">
          <mxGeometry relative="1" as="geometry" />
        </mxCell>
        <mxCell id="12lOe5pPhqCpIjHMCl5X-48" value="loginestudiante.html" style="rounded=1;whiteSpace=wrap;html=1;fillColor=#d5e8d4;strokeColor=#82b366;" parent="1" vertex="1">
          <mxGeometry x="820" y="280" width="170" height="60" as="geometry" />
        </mxCell>
        <mxCell id="12lOe5pPhqCpIjHMCl5X-52" value="config.html" style="rounded=1;whiteSpace=wrap;html=1;fillColor=#ffe6cc;strokeColor=#d79b00;" parent="1" vertex="1">
          <mxGeometry x="146" y="413" width="170" height="60" as="geometry" />
        </mxCell>
        <mxCell id="12lOe5pPhqCpIjHMCl5X-68" style="edgeStyle=orthogonalEdgeStyle;curved=1;rounded=0;orthogonalLoop=1;jettySize=auto;html=1;" parent="1" source="12lOe5pPhqCpIjHMCl5X-53" target="12lOe5pPhqCpIjHMCl5X-64" edge="1">
          <mxGeometry relative="1" as="geometry" />
        </mxCell>
        <mxCell id="12lOe5pPhqCpIjHMCl5X-69" style="edgeStyle=orthogonalEdgeStyle;curved=1;rounded=0;orthogonalLoop=1;jettySize=auto;html=1;" parent="1" source="12lOe5pPhqCpIjHMCl5X-53" target="12lOe5pPhqCpIjHMCl5X-63" edge="1">
          <mxGeometry relative="1" as="geometry" />
        </mxCell>
        <mxCell id="12lOe5pPhqCpIjHMCl5X-53" value="universidades.html" style="rounded=1;whiteSpace=wrap;html=1;fillColor=#dae8fc;strokeColor=#6c8ebf;" parent="1" vertex="1">
          <mxGeometry x="396" y="413" width="150" height="60" as="geometry" />
        </mxCell>
        <mxCell id="12lOe5pPhqCpIjHMCl5X-55" value="registrouniversidad.html" style="rounded=1;whiteSpace=wrap;html=1;fillColor=#dae8fc;strokeColor=#6c8ebf;" parent="1" vertex="1">
          <mxGeometry x="566" y="413" width="150" height="60" as="geometry" />
        </mxCell>
        <mxCell id="g4WGMbYprZbNHogj7jOl-3" style="edgeStyle=orthogonalEdgeStyle;curved=1;rounded=0;orthogonalLoop=1;jettySize=auto;html=1;exitX=0.5;exitY=1;exitDx=0;exitDy=0;" parent="1" source="12lOe5pPhqCpIjHMCl5X-56" target="g4WGMbYprZbNHogj7jOl-1" edge="1">
          <mxGeometry relative="1" as="geometry" />
        </mxCell>
        <mxCell id="g4WGMbYprZbNHogj7jOl-4" style="edgeStyle=orthogonalEdgeStyle;curved=1;rounded=0;orthogonalLoop=1;jettySize=auto;html=1;" parent="1" source="12lOe5pPhqCpIjHMCl5X-56" target="g4WGMbYprZbNHogj7jOl-2" edge="1">
          <mxGeometry relative="1" as="geometry">
            <Array as="points">
              <mxPoint x="825" y="500" />
              <mxPoint x="995" y="500" />
            </Array>
          </mxGeometry>
        </mxCell>
        <mxCell id="Mm72N6KHf0pwj9bKv49G-8" style="edgeStyle=orthogonalEdgeStyle;curved=1;rounded=0;orthogonalLoop=1;jettySize=auto;html=1;" edge="1" parent="1" source="12lOe5pPhqCpIjHMCl5X-56" target="Mm72N6KHf0pwj9bKv49G-1">
          <mxGeometry relative="1" as="geometry" />
        </mxCell>
        <mxCell id="12lOe5pPhqCpIjHMCl5X-56" value="estudiantes.html" style="rounded=1;whiteSpace=wrap;html=1;fillColor=#d5e8d4;strokeColor=#82b366;" parent="1" vertex="1">
          <mxGeometry x="750" y="413" width="150" height="60" as="geometry" />
        </mxCell>
        <mxCell id="12lOe5pPhqCpIjHMCl5X-57" value="registroestudiante.html" style="rounded=1;whiteSpace=wrap;html=1;fillColor=#d5e8d4;strokeColor=#82b366;" parent="1" vertex="1">
          <mxGeometry x="920" y="413" width="150" height="60" as="geometry" />
        </mxCell>
        <mxCell id="12lOe5pPhqCpIjHMCl5X-70" style="edgeStyle=orthogonalEdgeStyle;curved=1;rounded=0;orthogonalLoop=1;jettySize=auto;html=1;" parent="1" source="12lOe5pPhqCpIjHMCl5X-63" target="12lOe5pPhqCpIjHMCl5X-65" edge="1">
          <mxGeometry relative="1" as="geometry" />
        </mxCell>
        <mxCell id="12lOe5pPhqCpIjHMCl5X-63" value="alumnosasignatura.html" style="rounded=1;whiteSpace=wrap;html=1;fillColor=#dae8fc;strokeColor=#6c8ebf;" parent="1" vertex="1">
          <mxGeometry x="502.5" y="530" width="150" height="60" as="geometry" />
        </mxCell>
        <mxCell id="12lOe5pPhqCpIjHMCl5X-64" value="registrarasignatura.html" style="rounded=1;whiteSpace=wrap;html=1;fillColor=#dae8fc;strokeColor=#6c8ebf;" parent="1" vertex="1">
          <mxGeometry x="316" y="530" width="150" height="60" as="geometry" />
        </mxCell>
        <mxCell id="12lOe5pPhqCpIjHMCl5X-71" style="edgeStyle=orthogonalEdgeStyle;curved=1;rounded=0;orthogonalLoop=1;jettySize=auto;html=1;" parent="1" source="12lOe5pPhqCpIjHMCl5X-65" target="12lOe5pPhqCpIjHMCl5X-66" edge="1">
          <mxGeometry relative="1" as="geometry" />
        </mxCell>
        <mxCell id="12lOe5pPhqCpIjHMCl5X-65" value="actividades.html" style="rounded=1;whiteSpace=wrap;html=1;fillColor=#f8cecc;strokeColor=#b85450;" parent="1" vertex="1">
          <mxGeometry x="502.5" y="620" width="150" height="60" as="geometry" />
        </mxCell>
        <mxCell id="12lOe5pPhqCpIjHMCl5X-66" value="aÃ±adiractividad.html" style="rounded=1;whiteSpace=wrap;html=1;fillColor=#f8cecc;strokeColor=#b85450;" parent="1" vertex="1">
          <mxGeometry x="502.5" y="710" width="150" height="60" as="geometry" />
        </mxCell>
        <mxCell id="12lOe5pPhqCpIjHMCl5X-67" value="aprobarasignatura" style="edgeStyle=orthogonalEdgeStyle;curved=1;rounded=0;orthogonalLoop=1;jettySize=auto;html=1;entryX=1;entryY=0.5;entryDx=0;entryDy=0;" parent="1" source="12lOe5pPhqCpIjHMCl5X-63" target="12lOe5pPhqCpIjHMCl5X-63" edge="1">
          <mxGeometry x="-0.0622" y="10" relative="1" as="geometry">
            <Array as="points">
              <mxPoint x="577" y="510" />
              <mxPoint x="700" y="510" />
              <mxPoint x="700" y="560" />
            </Array>
            <mxPoint as="offset" />
          </mxGeometry>
        </mxCell>
        <mxCell id="g4WGMbYprZbNHogj7jOl-1" value="transferirects.html" style="rounded=1;whiteSpace=wrap;html=1;fillColor=#d5e8d4;strokeColor=#82b366;" parent="1" vertex="1">
          <mxGeometry x="920" y="700" width="150" height="60" as="geometry" />
        </mxCell>
        <mxCell id="g4WGMbYprZbNHogj7jOl-2" value="matricular.html" style="rounded=1;whiteSpace=wrap;html=1;fillColor=#d5e8d4;strokeColor=#82b366;" parent="1" vertex="1">
          <mxGeometry x="920" y="520" width="150" height="60" as="geometry" />
        </mxCell>
        <mxCell id="Mm72N6KHf0pwj9bKv49G-1" value="comprarects.html" style="rounded=1;whiteSpace=wrap;html=1;fillColor=#d5e8d4;strokeColor=#82b366;" vertex="1" parent="1">
          <mxGeometry x="750" y="630" width="150" height="60" as="geometry" />
        </mxCell>
        <mxCell id="Mm72N6KHf0pwj9bKv49G-6" style="edgeStyle=orthogonalEdgeStyle;curved=1;rounded=0;orthogonalLoop=1;jettySize=auto;html=1;entryX=0;entryY=0.5;entryDx=0;entryDy=0;" edge="1" parent="1" source="12lOe5pPhqCpIjHMCl5X-53" target="12lOe5pPhqCpIjHMCl5X-53">
          <mxGeometry relative="1" as="geometry">
            <Array as="points">
              <mxPoint x="471" y="380" />
              <mxPoint x="350" y="380" />
              <mxPoint x="350" y="443" />
            </Array>
          </mxGeometry>
        </mxCell>
        <mxCell id="Mm72N6KHf0pwj9bKv49G-7" value="reembolsar (ECTSToken)" style="text;html=1;align=center;verticalAlign=middle;resizable=0;points=[];labelBackgroundColor=#ffffff;" vertex="1" connectable="0" parent="Mm72N6KHf0pwj9bKv49G-6">
          <mxGeometry x="-0.17" relative="1" as="geometry">
            <mxPoint as="offset" />
          </mxGeometry>
        </mxCell>
      </root>
    </mxGraphModel>
  </diagram>
  <diagram id="156oatndLxO4dvfuAqOI" name="universidades.html">
    <mxGraphModel dx="1156" dy="606" grid="1" gridSize="10" guides="1" tooltips="1" connect="1" arrows="1" fold="1" page="1" pageScale="1" pageWidth="827" pageHeight="1169" math="0" shadow="0">
      <root>
        <mxCell id="4kZkMGZcwQLVVGqFaAiX-0" />
        <mxCell id="4kZkMGZcwQLVVGqFaAiX-1" parent="4kZkMGZcwQLVVGqFaAiX-0" />
        <mxCell id="4kZkMGZcwQLVVGqFaAiX-2" value="" style="html=1;whiteSpace=wrap;comic=1;strokeWidth=2;fontFamily=Comic Sans MS;fontStyle=1;" vertex="1" parent="4kZkMGZcwQLVVGqFaAiX-1">
          <mxGeometry x="40" y="40" width="740" height="520" as="geometry" />
        </mxCell>
        <mxCell id="4kZkMGZcwQLVVGqFaAiX-3" value="INFORMACIÃN UNIVERSIDAD" style="html=1;whiteSpace=wrap;comic=1;strokeWidth=2;fontFamily=Comic Sans MS;fontStyle=1;" vertex="1" parent="4kZkMGZcwQLVVGqFaAiX-1">
          <mxGeometry x="60" y="60" width="430" height="60" as="geometry" />
        </mxCell>
        <mxCell id="4kZkMGZcwQLVVGqFaAiX-5" value="LISTA ASIGNATURAS" style="html=1;whiteSpace=wrap;comic=1;strokeWidth=2;fontFamily=Comic Sans MS;fontStyle=1;" vertex="1" parent="4kZkMGZcwQLVVGqFaAiX-1">
          <mxGeometry x="60" y="140" width="700" height="60" as="geometry" />
        </mxCell>
        <mxCell id="37SAubsaAhZWVgWpW_Ab-0" value="aÃ±adir asignatura" style="html=1;whiteSpace=wrap;comic=1;strokeWidth=2;fontFamily=Comic Sans MS;fontStyle=1;" vertex="1" parent="4kZkMGZcwQLVVGqFaAiX-1">
          <mxGeometry x="630" y="150" width="120" height="20" as="geometry" />
        </mxCell>
        <mxCell id="37SAubsaAhZWVgWpW_Ab-1" value="LISTA DEPOSITOS ALUMNOS" style="html=1;whiteSpace=wrap;comic=1;strokeWidth=2;fontFamily=Comic Sans MS;fontStyle=1;" vertex="1" parent="4kZkMGZcwQLVVGqFaAiX-1">
          <mxGeometry x="60" y="220" width="700" height="130" as="geometry" />
        </mxCell>
        <mxCell id="37SAubsaAhZWVgWpW_Ab-2" value="CONSOLA" style="html=1;whiteSpace=wrap;comic=1;strokeWidth=2;fontFamily=Comic Sans MS;fontStyle=1;" vertex="1" parent="4kZkMGZcwQLVVGqFaAiX-1">
          <mxGeometry x="60" y="370" width="700" height="160" as="geometry" />
        </mxCell>
      </root>
    </mxGraphModel>
  </diagram>
  <diagram id="FroUzbPg4tdQO3owvPbs" name="estudiantes.html">
    <mxGraphModel dx="1156" dy="606" grid="1" gridSize="10" guides="1" tooltips="1" connect="1" arrows="1" fold="1" page="1" pageScale="1" pageWidth="827" pageHeight="1169" math="0" shadow="0">
      <root>
        <mxCell id="IpeSCp-X-PxSuYow8ULF-0" />
        <mxCell id="IpeSCp-X-PxSuYow8ULF-1" parent="IpeSCp-X-PxSuYow8ULF-0" />
        <mxCell id="6Z2Ftplb00PQwx4RU__K-0" value="" style="html=1;whiteSpace=wrap;comic=1;strokeWidth=2;fontFamily=Comic Sans MS;fontStyle=1;" vertex="1" parent="IpeSCp-X-PxSuYow8ULF-1">
          <mxGeometry x="40" y="30" width="760" height="530" as="geometry" />
        </mxCell>
        <mxCell id="6Z2Ftplb00PQwx4RU__K-1" value="INFORMACION ESTUDIANTE" style="html=1;whiteSpace=wrap;comic=1;strokeWidth=2;fontFamily=Comic Sans MS;fontStyle=1;" vertex="1" parent="IpeSCp-X-PxSuYow8ULF-1">
          <mxGeometry x="60" y="50" width="430" height="60" as="geometry" />
        </mxCell>
        <mxCell id="6Z2Ftplb00PQwx4RU__K-2" value="LISTA MATRICULAS" style="html=1;whiteSpace=wrap;comic=1;strokeWidth=2;fontFamily=Comic Sans MS;fontStyle=1;" vertex="1" parent="IpeSCp-X-PxSuYow8ULF-1">
          <mxGeometry x="60" y="130" width="710" height="110" as="geometry" />
        </mxCell>
        <mxCell id="6Z2Ftplb00PQwx4RU__K-3" value="LISTA DEPOSITOS" style="html=1;whiteSpace=wrap;comic=1;strokeWidth=2;fontFamily=Comic Sans MS;fontStyle=1;" vertex="1" parent="IpeSCp-X-PxSuYow8ULF-1">
          <mxGeometry x="59" y="260" width="710" height="110" as="geometry" />
        </mxCell>
        <mxCell id="6Z2Ftplb00PQwx4RU__K-4" value="aÃ±adir deposito" style="html=1;whiteSpace=wrap;comic=1;strokeWidth=2;fontFamily=Comic Sans MS;fontStyle=1;" vertex="1" parent="IpeSCp-X-PxSuYow8ULF-1">
          <mxGeometry x="640" y="270" width="120" height="20" as="geometry" />
        </mxCell>
        <mxCell id="PAAaJdWq7j2Y1nKWaARY-0" value="matricular en universidad" style="html=1;whiteSpace=wrap;comic=1;strokeWidth=2;fontFamily=Comic Sans MS;fontStyle=1;" vertex="1" parent="IpeSCp-X-PxSuYow8ULF-1">
          <mxGeometry x="580" y="320" width="180" height="20" as="geometry" />
        </mxCell>
        <mxCell id="PAAaJdWq7j2Y1nKWaARY-1" value="CONSOLA" style="html=1;whiteSpace=wrap;comic=1;strokeWidth=2;fontFamily=Comic Sans MS;fontStyle=1;" vertex="1" parent="IpeSCp-X-PxSuYow8ULF-1">
          <mxGeometry x="59" y="390" width="710" height="140" as="geometry" />
        </mxCell>
      </root>
    </mxGraphModel>
  </diagram>
</mxfile>
